<?xml version="1.0" standalone="no"?>
<!DOCTYPE svg PUBLIC "-//W3C//DTD SVG 20010904//EN"
 "http://www.w3.org/TR/2001/REC-SVG-20010904/DTD/svg10.dtd">
<svg version="1.0" xmlns="http://www.w3.org/2000/svg"
 width="225.000000pt" height="225.000000pt" viewBox="0 0 225.000000 225.000000"
 preserveAspectRatio="xMidYMid meet">

<g transform="translate(0.000000,225.000000) scale(0.100000,-0.100000)"
fill="#000000" stroke="none">
<path d="M170 1788 l0 -298 255 -251 c140 -139 255 -254 255 -258 0 -5 -199
-90 -427 -183 l-83 -33 0 -269 c0 -211 3 -267 12 -263 7 3 204 94 437 202
l424 197 55 -54 c31 -29 61 -57 68 -63 6 -5 92 -89 190 -185 l179 -175 3 168
c3 189 -3 179 90 152 83 -25 416 -115 424 -115 5 0 8 115 8 255 0 140 -3 255
-6 255 -5 0 -769 197 -899 232 -60 16 -111 1 660 188 94 23 187 45 208 51 l37
10 0 274 0 275 -37 -15 c-50 -19 -476 -155 -485 -155 -5 0 -8 80 -8 177 l0
178 -250 -250 -251 -250 3 -213 c2 -116 1 -212 -2 -212 -3 0 -127 131 -275
292 -149 161 -327 353 -396 428 -69 74 -140 151 -157 170 l-31 35 -1 -297z
m97 153 c34 -38 220 -239 412 -446 l350 -377 3 -214 c2 -118 0 -214 -4 -214
-4 0 -144 134 -310 297 -167 164 -354 347 -416 407 l-112 110 0 253 c0 139 3
253 8 253 4 0 35 -31 69 -69z m1233 -155 l0 -223 -82 -78 c-46 -42 -124 -116
-173 -164 -50 -47 -112 -106 -138 -131 l-47 -44 0 214 0 215 213 218 c116 119
215 217 219 217 5 0 8 -101 8 -224z m540 -170 l0 -244 -337 -82 c-186 -45
-396 -97 -468 -116 -71 -18 -131 -31 -132 -30 -2 2 72 74 164 161 93 87 189
179 216 206 l47 48 0 69 0 70 243 80 c133 44 248 80 255 81 9 1 12 -54 12
-243z m-575 -622 c204 -53 416 -108 473 -122 l102 -25 0 -229 c0 -125 -2 -228
-4 -228 -7 0 -487 131 -851 233 l-120 34 -3 222 c-2 209 -1 222 15 217 10 -3
185 -49 388 -102z m-596 -188 c84 -84 149 -156 145 -159 -5 -3 -157 -73 -339
-157 -181 -84 -361 -167 -400 -185 -38 -18 -73 -30 -77 -28 -5 2 -8 108 -8
234 l0 230 48 21 c156 69 459 196 467 197 6 1 79 -68 164 -153z m441 -244
l205 -57 3 -143 c1 -78 -1 -142 -5 -142 -9 1 -421 400 -413 399 3 0 97 -25
210 -57z"/>
</g>
</svg>
